<svg width="143" height="44" viewBox="0 0 143 44" fill="none" xmlns="http://www.w3.org/2000/svg">
<rect x="0.0864868" width="142" height="44" rx="22" fill="#0065FE"/>
<path d="M39.9865 14.8V16.56H36.8345V26H34.9945V16.56H31.8265V14.8H39.9865ZM41.9162 19.344C42.3536 18.352 43.1749 17.856 44.3802 17.856V19.728C43.7189 19.6853 43.1429 19.8453 42.6522 20.208C42.1616 20.56 41.9162 21.1467 41.9162 21.968V26H40.1882V18H41.9162V19.344ZM51.2052 18H53.0452L49.9732 26.256C49.2052 28.3253 47.9039 29.3067 46.0692 29.2V27.584C46.6132 27.616 47.0506 27.4987 47.3812 27.232C47.7119 26.976 47.9839 26.5707 48.1972 26.016L48.2772 25.856L44.8852 18H46.7732L49.1572 23.808L51.2052 18ZM62.3177 16.256C61.0591 16.1387 60.4297 16.6667 60.4297 17.84V18H62.3177V19.664H60.4297V26H58.7017V19.664H57.4857V18H58.7017V17.84C58.7017 16.7413 59.0057 15.9093 59.6137 15.344C60.2324 14.768 61.1337 14.5173 62.3177 14.592V16.256ZM66.7299 26.208C65.5565 26.208 64.5592 25.8027 63.7379 24.992C62.9165 24.1813 62.5059 23.184 62.5059 22C62.5059 20.816 62.9165 19.8187 63.7379 19.008C64.5592 18.1973 65.5565 17.792 66.7299 17.792C67.9139 17.792 68.9112 18.1973 69.7219 19.008C70.5432 19.8187 70.9539 20.816 70.9539 22C70.9539 23.184 70.5432 24.1813 69.7219 24.992C68.9112 25.8027 67.9139 26.208 66.7299 26.208ZM64.9539 23.808C65.4339 24.288 66.0259 24.528 66.7299 24.528C67.4339 24.528 68.0259 24.288 68.5059 23.808C68.9859 23.328 69.2259 22.7253 69.2259 22C69.2259 21.2747 68.9859 20.672 68.5059 20.192C68.0259 19.712 67.4339 19.472 66.7299 19.472C66.0259 19.472 65.4339 19.712 64.9539 20.192C64.4739 20.672 64.2339 21.2747 64.2339 22C64.2339 22.7253 64.4739 23.328 64.9539 23.808ZM74.2444 19.344C74.6817 18.352 75.503 17.856 76.7084 17.856V19.728C76.047 19.6853 75.471 19.8453 74.9804 20.208C74.4897 20.56 74.2444 21.1467 74.2444 21.968V26H72.5164V18H74.2444V19.344ZM86.1771 16.256C84.9184 16.1387 84.2891 16.6667 84.2891 17.84V18H86.1771V19.664H84.2891V26H82.5611V19.664H81.3451V18H82.5611V17.84C82.5611 16.7413 82.8651 15.9093 83.4731 15.344C84.0918 14.768 84.9931 14.5173 86.1771 14.592V16.256ZM88.9162 19.344C89.3536 18.352 90.1749 17.856 91.3802 17.856V19.728C90.7189 19.6853 90.1429 19.8453 89.6522 20.208C89.1616 20.56 88.9162 21.1467 88.9162 21.968V26H87.1882V18H88.9162V19.344ZM93.642 22.736C93.77 23.344 94.0633 23.8133 94.522 24.144C94.9807 24.464 95.5407 24.624 96.202 24.624C97.1193 24.624 97.8073 24.2933 98.266 23.632L99.69 24.464C98.9007 25.6267 97.7327 26.208 96.186 26.208C94.8847 26.208 93.834 25.8133 93.034 25.024C92.234 24.224 91.834 23.216 91.834 22C91.834 20.8053 92.2287 19.808 93.018 19.008C93.8073 18.1973 94.8207 17.792 96.058 17.792C97.2313 17.792 98.1913 18.2027 98.938 19.024C99.6953 19.8453 100.074 20.8427 100.074 22.016C100.074 22.1973 100.053 22.4373 100.01 22.736H93.642ZM93.626 21.328H98.33C98.2127 20.6773 97.9407 20.1867 97.514 19.856C97.098 19.5253 96.6073 19.36 96.042 19.36C95.402 19.36 94.8687 19.536 94.442 19.888C94.0153 20.24 93.7433 20.72 93.626 21.328ZM102.908 22.736C103.036 23.344 103.329 23.8133 103.788 24.144C104.246 24.464 104.806 24.624 105.468 24.624C106.385 24.624 107.073 24.2933 107.532 23.632L108.956 24.464C108.166 25.6267 106.998 26.208 105.452 26.208C104.15 26.208 103.1 25.8133 102.3 25.024C101.5 24.224 101.1 23.216 101.1 22C101.1 20.8053 101.494 19.808 102.284 19.008C103.073 18.1973 104.086 17.792 105.324 17.792C106.497 17.792 107.457 18.2027 108.204 19.024C108.961 19.8453 109.34 20.8427 109.34 22.016C109.34 22.1973 109.318 22.4373 109.276 22.736H102.908ZM102.892 21.328H107.596C107.478 20.6773 107.206 20.1867 106.78 19.856C106.364 19.5253 105.873 19.36 105.308 19.36C104.668 19.36 104.134 19.536 103.708 19.888C103.281 20.24 103.009 20.72 102.892 21.328Z" fill="white"/>
</svg>
