<svg width="43" height="16" viewBox="0 0 43 16" fill="none" xmlns="http://www.w3.org/2000/svg">
<path d="M2.04649 10.24H6.60649V12H0.206487V0.799999H2.04649V10.24ZM11.3861 12.208C10.2128 12.208 9.21545 11.8027 8.39411 10.992C7.57278 10.1813 7.16211 9.184 7.16211 8C7.16211 6.816 7.57278 5.81867 8.39411 5.008C9.21545 4.19733 10.2128 3.792 11.3861 3.792C12.5701 3.792 13.5674 4.19733 14.3781 5.008C15.1994 5.81867 15.6101 6.816 15.6101 8C15.6101 9.184 15.1994 10.1813 14.3781 10.992C13.5674 11.8027 12.5701 12.208 11.3861 12.208ZM9.61011 9.808C10.0901 10.288 10.6821 10.528 11.3861 10.528C12.0901 10.528 12.6821 10.288 13.1621 9.808C13.6421 9.328 13.8821 8.72533 13.8821 8C13.8821 7.27467 13.6421 6.672 13.1621 6.192C12.6821 5.712 12.0901 5.472 11.3861 5.472C10.6821 5.472 10.0901 5.712 9.61011 6.192C9.13011 6.672 8.89011 7.27467 8.89011 8C8.89011 8.72533 9.13011 9.328 9.61011 9.808ZM23.5406 4H25.2366V11.632C25.2366 12.848 24.8366 13.7813 24.0366 14.432C23.2366 15.0827 22.2659 15.408 21.1246 15.408C19.2793 15.408 18.0153 14.7627 17.3326 13.472L18.8206 12.608C19.2366 13.4293 20.0153 13.84 21.1566 13.84C21.9033 13.84 22.4846 13.6427 22.9006 13.248C23.3273 12.864 23.5406 12.3253 23.5406 11.632V10.656C22.8899 11.584 21.9619 12.048 20.7566 12.048C19.6259 12.048 18.6713 11.648 17.8926 10.848C17.1139 10.0373 16.7246 9.06133 16.7246 7.92C16.7246 6.77867 17.1139 5.808 17.8926 5.008C18.6713 4.19733 19.6259 3.792 20.7566 3.792C21.9619 3.792 22.8899 4.256 23.5406 5.184V4ZM19.1726 9.712C19.6633 10.192 20.2713 10.432 20.9966 10.432C21.7219 10.432 22.3246 10.192 22.8046 9.712C23.2953 9.232 23.5406 8.63467 23.5406 7.92C23.5406 7.20533 23.2953 6.608 22.8046 6.128C22.3246 5.648 21.7219 5.408 20.9966 5.408C20.2713 5.408 19.6633 5.648 19.1726 6.128C18.6926 6.608 18.4526 7.20533 18.4526 7.92C18.4526 8.63467 18.6926 9.232 19.1726 9.712ZM32.8827 2.48C32.6694 2.69333 32.4134 2.8 32.1147 2.8C31.8161 2.8 31.5547 2.69333 31.3307 2.48C31.1174 2.256 31.0107 1.99467 31.0107 1.696C31.0107 1.39733 31.1174 1.14133 31.3307 0.927999C31.5441 0.703999 31.8054 0.591999 32.1147 0.591999C32.4241 0.591999 32.6854 0.703999 32.8987 0.927999C33.1121 1.14133 33.2187 1.39733 33.2187 1.696C33.2187 1.99467 33.1067 2.256 32.8827 2.48ZM31.2507 12V4H32.9787V12H31.2507ZM39.1931 3.792C40.1104 3.792 40.8518 4.08533 41.4171 4.672C41.9824 5.25867 42.2651 6.064 42.2651 7.088V12H40.5371V7.264C40.5371 6.66667 40.3771 6.208 40.0571 5.888C39.7371 5.568 39.2998 5.408 38.7451 5.408C38.1371 5.408 37.6464 5.6 37.2731 5.984C36.8998 6.35733 36.7131 6.93333 36.7131 7.712V12H34.9851V4H36.7131V5.024C37.2358 4.20267 38.0624 3.792 39.1931 3.792Z" fill="#0065FE"/>
</svg>
