<svg width="67" height="17" viewBox="0 0 67 17" fill="none" xmlns="http://www.w3.org/2000/svg">
<path d="M12.2265 0.399999V13H10.5705V3.154L6.44849 10.012H6.23249L2.11049 3.172V13H0.436487V0.399999H2.32649L6.34049 7.06L10.3365 0.399999H12.2265ZM21.0409 4H22.7149L19.0429 13.558C18.6589 14.578 18.1189 15.352 17.4229 15.88C16.7389 16.42 15.9469 16.66 15.0469 16.6V15.142C16.1509 15.226 16.9609 14.614 17.4769 13.306L17.6389 12.964L13.7149 4H15.3889L18.4489 11.056L21.0409 4ZM36.6585 12.028C35.7825 12.832 34.6485 13.234 33.2565 13.234C31.8645 13.234 30.7245 12.832 29.8365 12.028C28.9605 11.212 28.5225 10.126 28.5225 8.77V0.399999H30.1965V8.698C30.1965 9.586 30.4605 10.294 30.9885 10.822C31.5165 11.338 32.2725 11.596 33.2565 11.596C34.2405 11.596 34.9965 11.338 35.5245 10.822C36.0525 10.294 36.3165 9.586 36.3165 8.698V0.399999H37.9725V8.77C37.9725 10.126 37.5345 11.212 36.6585 12.028ZM48.0022 13L45.1762 8.176H42.2062V13H40.5322V0.399999H45.5722C46.6522 0.399999 47.5762 0.783999 48.3442 1.552C49.1122 2.308 49.4962 3.226 49.4962 4.306C49.4962 5.122 49.2502 5.866 48.7582 6.538C48.2782 7.21 47.6542 7.684 46.8862 7.96L49.8562 13H48.0022ZM42.2062 1.966V6.664H45.5722C46.1962 6.664 46.7242 6.436 47.1562 5.98C47.6002 5.512 47.8222 4.954 47.8222 4.306C47.8222 3.658 47.6002 3.106 47.1562 2.65C46.7242 2.194 46.1962 1.966 45.5722 1.966H42.2062ZM53.2101 11.416H58.6461V13H51.5361V0.399999H53.2101V11.416ZM61.5132 6.43C61.5132 6.778 61.6872 7.06 62.0352 7.276C62.3832 7.48 62.8032 7.648 63.2952 7.78C63.7872 7.9 64.2792 8.044 64.7712 8.212C65.2632 8.368 65.6832 8.644 66.0312 9.04C66.3792 9.424 66.5532 9.922 66.5532 10.534C66.5532 11.35 66.2352 12.004 65.5992 12.496C64.9752 12.988 64.1712 13.234 63.1872 13.234C62.3112 13.234 61.5612 13.042 60.9372 12.658C60.3132 12.274 59.8692 11.764 59.6052 11.128L60.9552 10.354C61.0992 10.786 61.3692 11.128 61.7652 11.38C62.1612 11.632 62.6352 11.758 63.1872 11.758C63.7032 11.758 64.1292 11.662 64.4652 11.47C64.8012 11.266 64.9692 10.954 64.9692 10.534C64.9692 10.186 64.7952 9.91 64.4472 9.706C64.0992 9.49 63.6792 9.322 63.1872 9.202C62.6952 9.07 62.2032 8.92 61.7112 8.752C61.2192 8.584 60.7992 8.308 60.4512 7.924C60.1032 7.54 59.9292 7.048 59.9292 6.448C59.9292 5.668 60.2292 5.026 60.8292 4.522C61.4412 4.018 62.2032 3.766 63.1152 3.766C63.8472 3.766 64.4952 3.934 65.0592 4.27C65.6352 4.594 66.0672 5.05 66.3552 5.638L65.0412 6.376C64.7172 5.608 64.0752 5.224 63.1152 5.224C62.6712 5.224 62.2932 5.332 61.9812 5.548C61.6692 5.752 61.5132 6.046 61.5132 6.43Z" fill="#0065FE"/>
</svg>
